#tb 0: 1/44100
#media_type 0: audio
#codec_id 0: pcm_s16le
#sample_rate 0: 44100
#channel_layout_name 0: stereo
0,          0,          0,     4096,    16384, 0xf3e9de38
0,       4096,       4096,     4096,    16384, 0x217ab486
0,       8192,       8192,     4096,    16384, 0x2197e734
0,      12288,      12288,     4096,    16384, 0x0e1fc994
0,      16384,      16384,     4096,    16384, 0x7517c2e7
0,      20480,      20480,     4096,    16384, 0x287ea3f3
0,      24576,      24576,     4096,    16384, 0x0a5feaf5
0,      28672,      28672,     4096,    16384, 0xe9a0dd42
0,      32768,      32768,     4096,    16384, 0x4de9da44
0,      36864,      36864,     4096,    16384, 0xab77eb08
0,      40960,      40960,     4096,    16384, 0xa422b661
0,      45056,      45056,     4096,    16384, 0x4ac2fd47
0,      49152,      49152,     4096,    16384, 0x57b5a7cb
0,      53248,      53248,     4096,    16384, 0x3825c66b
0,      57344,      57344,     4096,    16384, 0xa422b661
0,      61440,      61440,     4096,    16384, 0x4ac2fd47
0,      65536,      65536,     4096,    16384, 0x57b5a7cb
0,      69632,      69632,     4096,    16384, 0x3825c66b
0,      73728,      73728,     4096,    16384, 0xa422b661
0,      77824,      77824,     4096,    16384, 0x4ac2fd47
